# xmcd CD database file
#
# Track frame offsets:
#	150
#	19183
#	33819
#	49892
#	67133
#	83225
#	95848
#	109509
#	123394
#	136295
#	152399
#	167852
#	180055
#	195127
#	208852
#	222201
#
# Disc length: 3118 seconds
#
# Revision: 0
# Processed by: cddbd v1.4PL0 Copyright (c) Steve Scherf et al.
# Submitted via: CDex 1.51
#
DISCID=d20c2c10
DTITLE=TUXEDO BIG BAND - Keep on jumpin'
DYEAR=2001
DGENRE=Jazz
TTITLE0=Keep on jumpin'
TTITLE1=Is you is or is you ain't my baby
TTITLE2=Ain't misbehavin'
TTITLE3=Exactly like you
TTITLE4=Lazy river
TTITLE5=On the sunny side of the street
TTITLE6=Easy as you go
TTITLE7=Slender tender and tall
TTITLE8=Dear old Southland
TTITLE9=If I could be with you
TTITLE10=I can't give you anything but love
TTITLE11=Don't sweetheart me
TTITLE12=Perdido
TTITLE13=Oki man mose
TTITLE14=When it's sleepy time down south
TTITLE15=When the saints go marchin' in
EXTD=YEAR: 2001
EXTT0=
EXTT1=
EXTT2=
EXTT3=
EXTT4=
EXTT5=
EXTT6=
EXTT7=
EXTT8=
EXTT9=
EXTT10=
EXTT11=
EXTT12=
EXTT13=
EXTT14=
EXTT15=
PLAYORDER=
